<?xml version="1.0" encoding="UTF-8"?>
<svg version="1.1" xmlns="http://www.w3.org/2000/svg" width="500" height="500">
<path d="M0 0 C165 0 330 0 500 0 C500 165 500 330 500 500 C335 500 170 500 0 500 C0 335 0 170 0 0 Z " fill="#FEFEFE" transform="translate(0,0)"/>
<path d="M0 0 C-0.37511719 0.43570313 -0.75023437 0.87140625 -1.13671875 1.3203125 C-2.2116244 2.57121026 -3.28439715 3.8239428 -4.35546875 5.078125 C-5.72931907 6.68366979 -7.11342143 8.28043465 -8.5 9.875 C-15.24298379 18.05358679 -20.68040365 26.11354166 -20 37 C-19.649375 36.01 -19.29875 35.02 -18.9375 34 C-16.38765198 28.1102102 -12.53725426 23.41352109 -6.921875 20.28515625 C-2.21382696 18.42368956 2.50489785 18.5991849 7.5 18.6875 C8.41136719 18.68427734 9.32273437 18.68105469 10.26171875 18.67773438 C15.55111378 18.7197137 19.99611298 19.27475873 25 21 C25 21.66 25 22.32 25 23 C23.96101563 23.08636719 22.92203125 23.17273438 21.8515625 23.26171875 C14.10656451 24.00712717 7.73485234 24.91693819 0.91796875 28.9765625 C-1 30 -1 30 -4 30 C-4 30.66 -4 31.32 -4 32 C-5.134375 32.45375 -6.26875 32.9075 -7.4375 33.375 C-11.04721692 34.57095806 -11.04721692 34.57095806 -12 37 C-12.66 37 -13.32 37 -14 37 C-14 37.66 -14 38.32 -14 39 C-12.7934375 38.96519531 -11.586875 38.93039063 -10.34375 38.89453125 C-8.72918072 38.86637016 -7.11459621 38.83907251 -5.5 38.8125 C-4.31277344 38.77479492 -4.31277344 38.77479492 -3.1015625 38.73632812 C4.20386385 38.64650731 10.78937375 40.14677 16.41015625 45.20703125 C20.1172351 49.3877418 23.4013964 54.0563151 26 59 C25.67 59.99 25.34 60.98 25 62 C24.20335937 61.28972656 23.40671875 60.57945312 22.5859375 59.84765625 C21.51616765 58.91864559 20.44582453 57.99029478 19.375 57.0625 C18.85292969 56.59392578 18.33085937 56.12535156 17.79296875 55.64257812 C14.22897949 52.58458734 11.65458551 51.40992088 7 51 C5.33032028 50.3409159 3.66392045 49.67349161 2 49 C-4.45234867 46.99754697 -10.265119 46.77715467 -17 47 C-17 47.66 -17 48.32 -17 49 C-16.34 49.185625 -15.68 49.37125 -15 49.5625 C-3.59547852 55.02716654 4.75542401 68.12331355 9.1953125 79.62109375 C11.49733372 89.28734792 10.78817099 99.53074002 8 109 C7 110 7 110 3.4375 110.0625 C2.303125 110.041875 1.16875 110.02125 0 110 C0 110.66 0 111.32 0 112 C1.258125 111.896875 2.51625 111.79375 3.8125 111.6875 C5.95703125 111.51171875 5.95703125 111.51171875 8 112 C10.36091686 115.45996436 11.94632416 119.07185988 13.48046875 122.95703125 C13.87903076 123.95968018 14.27759277 124.9623291 14.68823242 125.99536133 C15.18299072 127.25501709 15.67774902 128.51467285 16.1875 129.8125 C17.775625 133.834375 19.36375 137.85625 21 142 C21.33 132.1 21.66 122.2 22 112 C24.97 112 27.94 112 31 112 C31 120.91 31 129.82 31 139 C34.96 139 38.92 139 43 139 C43 141.31 43 143.62 43 146 C32.77 146 22.54 146 12 146 C11.01 143.525 11.01 143.525 10 141 C6.04 140.67 2.08 140.34 -2 140 C-2.495 142.97 -2.495 142.97 -3 146 C-6.3 146 -9.6 146 -13 146 C-13 145.34 -13 144.68 -13 144 C-13.99 144 -14.98 144 -16 144 C-16 140.37 -16 136.74 -16 133 C-14.02 133.66 -12.04 134.32 -10 135 C-9.34 133.68 -8.68 132.36 -8 131 C-8.763125 130.855625 -9.52625 130.71125 -10.3125 130.5625 C-13 130 -13 130 -16 129 C-16 126.69 -16 124.38 -16 122 C-13.36 122 -10.72 122 -8 122 C-8 118.04 -8 114.08 -8 110 C-9.32 110 -10.64 110 -12 110 C-9.26821192 101.64072848 -9.26821192 101.64072848 -7.875 98.3125 C-4.29414831 88.84882053 -5.22269012 78.21996488 -8.66015625 68.8984375 C-11.6209194 62.49352131 -15.75215576 56.73166284 -21 52 C-21.66 52 -22.32 52 -23 52 C-24.91137845 56.81637031 -25.31382433 61.18888764 -25.25 66.3125 C-25.24419922 67.43483032 -25.24419922 67.43483032 -25.23828125 68.57983398 C-25.15417403 73.9586077 -24.50811158 78.81586643 -23 84 C-29.23490919 78.4578585 -32.5417225 71.94939703 -33.3125 63.625 C-32.94486702 59.36045739 -31.60153143 57.33321215 -29 54 C-33.0903257 56.10043752 -34.75392599 58.04263151 -37 62 C-37.66 62 -38.32 62 -39 62 C-39.268125 62.928125 -39.53625 63.85625 -39.8125 64.8125 C-41 68 -41 68 -42.46875 69.3125 C-44.64250627 71.70806813 -44.98086995 74.05813836 -45.6875 77.1875 C-45.93886719 78.27417969 -46.19023437 79.36085938 -46.44921875 80.48046875 C-46.63097656 81.31191406 -46.81273437 82.14335937 -47 83 C-47.99 83 -48.98 83 -50 83 C-50.83665001 64.26833592 -50.83665001 64.26833592 -46 57 C-43.03107516 53.80811242 -39.91748891 50.95874446 -36 49 C-43.79474533 49.95445861 -49.81150346 51.56538349 -56.30078125 55.9765625 C-58 57 -58 57 -60 57 C-62.10113908 58.79266159 -64.11932553 60.60601042 -66.125 62.5 C-66.68832031 63.02464844 -67.25164062 63.54929688 -67.83203125 64.08984375 C-69.22547796 65.38881949 -70.61327583 66.69385002 -72 68 C-72.33 67.34 -72.66 66.68 -73 66 C-69.25241988 55.70230158 -62.73535246 46.29604918 -53.0625 40.875 C-48.03647752 38.62630862 -43.42312114 38.480765 -38 39 C-38 38.34 -38 37.68 -38 37 C-39.06541016 36.90912109 -39.06541016 36.90912109 -40.15234375 36.81640625 C-41.07144531 36.73261719 -41.99054688 36.64882812 -42.9375 36.5625 C-43.85402344 36.48128906 -44.77054687 36.40007812 -45.71484375 36.31640625 C-48 36 -48 36 -49 35 C-52.07558863 34.92752663 -55.13915403 35.00384561 -58.21484375 35.0625 C-61 35 -61 35 -63 34 C-65.74480834 34.57739626 -68.41871486 35.21535656 -71.125 35.9375 C-71.87910156 36.13279297 -72.63320313 36.32808594 -73.41015625 36.52929688 C-75.27508306 37.01323358 -77.13776459 37.50580769 -79 38 C-73.07250383 30.5420127 -66.49910224 24.30747423 -57 22 C-46.41791724 20.84559097 -39.2833392 25.89431501 -31.30859375 32.13671875 C-30.54675781 32.75160156 -29.78492188 33.36648437 -29 34 C-29.05220703 32.948125 -29.05220703 32.948125 -29.10546875 31.875 C-29.36398906 22.81447867 -28.02835284 16.44611021 -21.80859375 9.66796875 C-15.52182737 3.87002222 -8.71492734 -0.40534546 0 0 Z " fill="#218418" transform="translate(414,149)"/>
<path d="M0 0 C8.28617272 3.62633379 12.62522099 12.02444804 16 20 C21.34938272 33.75555556 16.54480476 46.30197384 11 59 C12.32 59 13.64 59 15 59 C15 62.96 15 66.92 15 71 C12.36 71 9.72 71 7 71 C7 73.31 7 75.62 7 78 C7.763125 78.144375 8.52625 78.28875 9.3125 78.4375 C12 79 12 79 15 80 C14.67 81.65 14.34 83.3 14 85 C11.69 84.01 9.38 83.02 7 82 C7.02320313 82.68707031 7.04640625 83.37414062 7.0703125 84.08203125 C7.08835937 84.98308594 7.10640625 85.88414062 7.125 86.8125 C7.14820313 87.70582031 7.17140625 88.59914063 7.1953125 89.51953125 C7 92 7 92 5 95 C2.6171875 95.29296875 2.6171875 95.29296875 -0.125 95.1875 C-1.03507812 95.16042969 -1.94515625 95.13335937 -2.8828125 95.10546875 C-3.58148438 95.07066406 -4.28015625 95.03585937 -5 95 C-5.04125 94.236875 -5.0825 93.47375 -5.125 92.6875 C-5.41375 91.800625 -5.7025 90.91375 -6 90 C-7.98 89.01 -9.96 88.02 -12 87 C-12 82.05 -12 77.1 -12 72 C-9.69 72.99 -7.38 73.98 -5 75 C-5 73.02 -5 71.04 -5 69 C-7.64 69.33 -10.28 69.66 -13 70 C-13.33 78.25 -13.66 86.5 -14 95 C-17.3 95 -20.6 95 -24 95 C-26.54257553 92.18747201 -27.94562366 90.25964194 -29.625 87 C-30.05683594 86.236875 -30.48867188 85.47375 -30.93359375 84.6875 C-31.9895287 82.81028232 -32.99949856 80.90733891 -34 79 C-34.33 84.28 -34.66 89.56 -35 95 C-37.97 95 -40.94 95 -44 95 C-44 84.11 -44 73.22 -44 62 C-40.7 62 -37.4 62 -34 62 C-31.59820421 64.49735795 -30.40266874 66.04726714 -28.875 69 C-28.49085938 69.66773438 -28.10671875 70.33546875 -27.7109375 71.0234375 C-26.77372422 72.66356073 -25.88208375 74.32958053 -25 76 C-26.21718254 71.91121204 -27.64909942 68.71865299 -30.125 65.25 C-33 61.20574163 -33 61.20574163 -33 59 C-33.83136475 59.02618408 -34.66272949 59.05236816 -35.51928711 59.0793457 C-38.64470859 59.16526271 -41.76952246 59.22758211 -44.89575195 59.2746582 C-46.89770801 59.31176249 -48.89911742 59.37534137 -50.90039062 59.43945312 C-59.16712071 59.54356811 -64.17510469 58.75719926 -71 54 C-70.67 47.73 -70.34 41.46 -70 35 C-68.68 35.33 -67.36 35.66 -66 36 C-66.02320313 36.96421875 -66.04640625 37.9284375 -66.0703125 38.921875 C-66.08835937 40.18515625 -66.10640625 41.4484375 -66.125 42.75 C-66.14820313 44.00296875 -66.17140625 45.2559375 -66.1953125 46.546875 C-66.012723 49.77505744 -65.90375556 51.43771265 -64 54 C-60.57175609 56.48307386 -56.87482953 56.3958428 -52.75 56.625 C-51.48671875 56.69976562 -50.2234375 56.77453125 -48.921875 56.8515625 C-47.95765625 56.90054688 -46.9934375 56.94953125 -46 57 C-46 54.36 -46 51.72 -46 49 C-45.34 49 -44.68 49 -44 49 C-43.67 43.72 -43.34 38.44 -43 33 C-41.35 33 -39.7 33 -38 33 C-37 34 -37 34 -36.9375 37.5625 C-36.958125 38.696875 -36.97875 39.83125 -37 41 C-34.36 41 -31.72 41 -29 41 C-29 38.36 -29 35.72 -29 33 C-26.525 32.505 -26.525 32.505 -24 32 C-23.34 28.04 -22.68 24.08 -22 20 C-21.01 19.67 -20.02 19.34 -19 19 C-18.31974363 17.00458132 -17.65509503 15.00382009 -17 13 C-14.38194729 9.29861513 -11.37421651 6.02814302 -8 3 C-7.01 3 -6.02 3 -5 3 C-5.66 3.845625 -6.32 4.69125 -7 5.5625 C-9.65018457 10.11750474 -9.66820893 13.10614131 -8.4921875 18.19921875 C-6.89241856 23.61452854 -4.48208888 27.57680602 -1 32 C-1.2165625 31.05253906 -1.2165625 31.05253906 -1.4375 30.0859375 C-3.50018684 20.14493285 -5.23303295 9.15780766 0 0 Z " fill="#FBFCFB" transform="translate(391,200)"/>
<path d="M0 0 C8.11156737 6.02951818 13.62289834 13.49344841 16.3203125 23.26953125 C16.71175736 26.30548536 16.74199238 29.27449885 16.6953125 32.33203125 C16.70691406 33.09580078 16.71851563 33.85957031 16.73046875 34.64648438 C16.70348212 39.90438034 15.67909666 43.57068344 13.3203125 48.26953125 C12.75828125 48.12515625 12.19625 47.98078125 11.6171875 47.83203125 C-3.34876709 44.52666705 -22.33222901 44.14286614 -36.1796875 51.45703125 C-39.76323272 53.31279574 -41.71941185 53.66555882 -45.6796875 53.26953125 C-45.8034375 54.05328125 -45.9271875 54.83703125 -46.0546875 55.64453125 C-46.6796875 58.26953125 -46.6796875 58.26953125 -48.6796875 60.26953125 C-48.9860734 63.00388087 -49.1910211 65.65232946 -49.3046875 68.39453125 C-49.34335938 69.14863281 -49.38203125 69.90273437 -49.421875 70.6796875 C-49.51619781 72.54256309 -49.59903412 74.4060138 -49.6796875 76.26953125 C-51.34580655 76.31225225 -53.01351635 76.31016957 -54.6796875 76.26953125 C-55.6796875 75.26953125 -55.6796875 75.26953125 -55.77734375 73.421875 C-55.72851562 70.34570312 -55.72851562 70.34570312 -55.6796875 67.26953125 C-58.3196875 67.26953125 -60.9596875 67.26953125 -63.6796875 67.26953125 C-63.6796875 70.23953125 -63.6796875 73.20953125 -63.6796875 76.26953125 C-65.34580655 76.31225225 -67.01351635 76.31016957 -68.6796875 76.26953125 C-69.6796875 75.26953125 -69.6796875 75.26953125 -69.79321289 73.22827148 C-69.78797607 72.35372314 -69.78273926 71.4791748 -69.77734375 70.578125 C-69.77412109 69.63388672 -69.77089844 68.68964844 -69.76757812 67.71679688 C-69.75919922 66.72357422 -69.75082031 65.73035156 -69.7421875 64.70703125 C-69.73767578 63.70994141 -69.73316406 62.71285156 -69.72851562 61.68554688 C-69.71668757 59.21348276 -69.70020599 56.74153607 -69.6796875 54.26953125 C-68.01356845 54.22681025 -66.34585865 54.22889293 -64.6796875 54.26953125 C-63.6796875 55.26953125 -63.6796875 55.26953125 -63.6171875 58.83203125 C-63.6378125 59.96640625 -63.6584375 61.10078125 -63.6796875 62.26953125 C-61.0396875 62.26953125 -58.3996875 62.26953125 -55.6796875 62.26953125 C-55.27910668 55.96038337 -55.8772558 51.87439465 -58.70703125 46.21484375 C-62.3404157 38.94807485 -61.90360293 27.03476931 -59.5546875 19.26953125 C-54.61984167 7.34749717 -46.40148931 0.19779298 -34.6796875 -4.73046875 C-23.61620459 -8.53053462 -9.56359378 -6.17590677 0 0 Z " fill="#FFB003" transform="translate(301.6796875,178.73046875)"/>
<path d="M0 0 C0.495 0.99 0.495 0.99 1 2 C-0.65 2 -2.3 2 -4 2 C-4 6.95 -4 11.9 -4 17 C-4.66 17 -5.32 17 -6 17 C-6.13277344 16.36191406 -6.26554687 15.72382813 -6.40234375 15.06640625 C-6.57894531 14.24011719 -6.75554687 13.41382813 -6.9375 12.5625 C-7.11152344 11.73878906 -7.28554688 10.91507813 -7.46484375 10.06640625 C-7.80752994 8.02338796 -7.80752994 8.02338796 -9 7 C-8.505 7.99 -8.505 7.99 -8 9 C-7.38233477 14.47957298 -6.95568356 18.62589942 -10.375 23.125 C-13 25 -13 25 -15 26 C-13.21142578 26.30744141 -13.21142578 26.30744141 -11.38671875 26.62109375 C-9.82029147 26.89310807 -8.25388636 27.16525015 -6.6875 27.4375 C-5.90181641 27.57220703 -5.11613281 27.70691406 -4.30664062 27.84570312 C-3.54931641 27.97783203 -2.79199219 28.10996094 -2.01171875 28.24609375 C-1.31522217 28.36654053 -0.61872559 28.4869873 0.09887695 28.61108398 C2 29 2 29 5 30 C5 32.31 5 34.62 5 37 C2 36 2 36 -0.3125 33.4375 C-2.80872225 30.68425082 -2.80872225 30.68425082 -6.3125 30.6875 C-7.199375 30.790625 -8.08625 30.89375 -9 31 C-7.9275 31.226875 -6.855 31.45375 -5.75 31.6875 C-1.47451576 33.18391948 -0.0536175 33.97833239 2 38 C2.28472844 41.2017422 2.12162631 43.98142965 1 47 C-0.65 48.65 -2.3 50.3 -4 52 C-1.03 55.63 1.94 59.26 5 63 C5.33 52.77 5.66 42.54 6 32 C8.97 32 11.94 32 15 32 C15 42.89 15 53.78 15 65 C11.65875 65.165 8.3175 65.33 4.875 65.5 C3.83327637 65.57283203 2.79155273 65.64566406 1.71826172 65.72070312 C-5.02047862 65.88142707 -5.02047862 65.88142707 -8.01855469 63.18359375 C-9.51967008 61.18210656 -10.81741034 59.20253445 -12 57 C-12.33 59.64 -12.66 62.28 -13 65 C-16.63 65 -20.26 65 -24 65 C-24.495 61.04 -24.495 61.04 -25 57 C-25.721875 57.763125 -26.44375 58.52625 -27.1875 59.3125 C-32.73980285 64.61803384 -37.33294219 66.36289377 -44.984375 66.20703125 C-49.81100615 65.71127262 -52.96094432 63.2918194 -56.1875 59.875 C-62.03548616 52.52280742 -62.96784913 44.16975006 -62 35 C-61.2319809 32.12654922 -60.25236525 29.71345805 -59 27 C-56.69 27 -54.38 27 -52 27 C-52.02320313 26.22914063 -52.04640625 25.45828125 -52.0703125 24.6640625 C-52.08835938 23.66117188 -52.10640625 22.65828125 -52.125 21.625 C-52.14820313 20.62726563 -52.17140625 19.62953125 -52.1953125 18.6015625 C-52 16 -52 16 -50 14 C-49.53603307 11.10776497 -49.53603307 11.10776497 -49.375 7.875 C-49.30023438 6.77929688 -49.22546875 5.68359375 -49.1484375 4.5546875 C-49.09945312 3.71164063 -49.05046875 2.86859375 -49 2 C-47.64455078 2.10828125 -47.64455078 2.10828125 -46.26171875 2.21875 C-45.08222656 2.3115625 -43.90273438 2.404375 -42.6875 2.5 C-41.51574219 2.5928125 -40.34398437 2.685625 -39.13671875 2.78125 C-35.07406433 3.06457335 -32.47611943 2.83934828 -28.6875 1.5 C-19.45567313 -1.16447036 -9.51389047 -0.24549539 0 0 Z " fill="#F5F5F8" transform="translate(305,230)"/>
<path d="M0 0 C2.0078125 0.5234375 2.0078125 0.5234375 3.5078125 2.44921875 C5.53432786 6.60251976 7.35866074 10.81952493 9.1328125 15.0859375 C9.49246094 15.93607422 9.85210937 16.78621094 10.22265625 17.66210938 C11.73065944 21.2626788 13.14353307 24.7075521 14.0078125 28.5234375 C14.06316162 27.8528833 14.11851074 27.1823291 14.17553711 26.49145508 C14.42915261 23.43936013 14.68718888 20.38765436 14.9453125 17.3359375 C15.03232422 16.28083984 15.11933594 15.22574219 15.20898438 14.13867188 C15.29599609 13.11708984 15.38300781 12.09550781 15.47265625 11.04296875 C15.5512085 10.10557861 15.62976074 9.16818848 15.71069336 8.20239258 C15.99956737 5.59777915 16.45358081 3.08346006 17.0078125 0.5234375 C18.44364251 0.41507297 19.8818327 0.33767583 21.3203125 0.2734375 C22.12082031 0.22703125 22.92132813 0.180625 23.74609375 0.1328125 C26.0078125 0.5234375 26.0078125 0.5234375 27.6640625 2.1796875 C29.17486024 4.81479984 30.20424641 7.40276332 31.1953125 10.2734375 C31.53949219 11.25828125 31.88367188 12.243125 32.23828125 13.2578125 C32.49222656 14.00546875 32.74617188 14.753125 33.0078125 15.5234375 C33.34554687 14.77578125 33.68328125 14.028125 34.03125 13.2578125 C34.70027344 11.78054688 34.70027344 11.78054688 35.3828125 10.2734375 C35.82367188 9.29890625 36.26453125 8.324375 36.71875 7.3203125 C37.77419388 5.03031911 38.86325185 2.76977149 40.0078125 0.5234375 C41.48688142 0.49654534 42.96608733 0.47709129 44.4453125 0.4609375 C45.26902344 0.44933594 46.09273438 0.43773437 46.94140625 0.42578125 C49.0078125 0.5234375 49.0078125 0.5234375 50.0078125 1.5234375 C50.30780003 3.53239354 50.54755118 5.5504043 50.76171875 7.5703125 C50.89384766 8.8078125 51.02597656 10.0453125 51.16210938 11.3203125 C51.29681641 12.62484375 51.43152344 13.929375 51.5703125 15.2734375 C51.70888672 16.5625 51.84746094 17.8515625 51.99023438 19.1796875 C52.53340323 24.33845375 53.0078125 29.32979066 53.0078125 34.5234375 C49.7078125 34.5234375 46.4078125 34.5234375 43.0078125 34.5234375 C42.3478125 30.5634375 41.6878125 26.6034375 41.0078125 22.5234375 C39.6878125 26.4834375 38.3678125 30.4434375 37.0078125 34.5234375 C34.6978125 34.5234375 32.3878125 34.5234375 30.0078125 34.5234375 C28.6878125 30.8934375 27.3678125 27.2634375 26.0078125 23.5234375 C24.85966253 25.81973744 24.70011441 27.60041836 24.4453125 30.1484375 C24.3009375 31.5921875 24.1565625 33.0359375 24.0078125 34.5234375 C18.0678125 34.5234375 12.1278125 34.5234375 6.0078125 34.5234375 C5.3478125 32.8734375 4.6878125 31.2234375 4.0078125 29.5234375 C0.0478125 29.1934375 -3.9121875 28.8634375 -7.9921875 28.5234375 C-8.3221875 30.5034375 -8.6521875 32.4834375 -8.9921875 34.5234375 C-12.2921875 34.5234375 -15.5921875 34.5234375 -18.9921875 34.5234375 C-18.31441716 30.42809641 -17.04315117 26.80346651 -15.5234375 22.9453125 C-15.28306763 22.33326965 -15.04269775 21.72122681 -14.79504395 21.09063721 C-14.28935436 19.8057293 -13.78162894 18.52162094 -13.27197266 17.23828125 C-12.48988858 15.26764485 -11.71519006 13.29422079 -10.94140625 11.3203125 C-6.66094426 0.46700347 -6.66094426 0.46700347 0 0 Z " fill="#0749F4" transform="translate(141.9921875,260.4765625)"/>
<path d="M0 0 C1.98 0.495 1.98 0.495 4 1 C3.97679687 1.96421875 3.95359375 2.9284375 3.9296875 3.921875 C3.91164063 5.18515625 3.89359375 6.4484375 3.875 7.75 C3.85179687 9.00296875 3.82859375 10.2559375 3.8046875 11.546875 C3.987277 14.77505744 4.09624444 16.43771265 6 19 C9.42824391 21.48307386 13.12517047 21.3958428 17.25 21.625 C18.51328125 21.69976562 19.7765625 21.77453125 21.078125 21.8515625 C22.04234375 21.90054687 23.0065625 21.94953125 24 22 C24 19.36 24 16.72 24 14 C24.99 14.33 25.98 14.66 27 15 C27 17.31 27 19.62 27 22 C27.8353125 21.78730469 27.8353125 21.78730469 28.6875 21.5703125 C34.90686015 20.37266544 34.90686015 20.37266544 38.2734375 22.3046875 C39.64308188 23.40956791 40.9795579 24.55728794 42.2734375 25.75 C42.84320313 26.1625 43.41296875 26.575 44 27 C44.99 26.67 45.98 26.34 47 26 C49.57445364 25.90332575 52.1210083 25.8600008 54.6953125 25.8671875 C55.44336151 25.86623077 56.19141052 25.86527405 56.96212769 25.86428833 C58.54067062 25.86360857 60.11921636 25.86544863 61.69775391 25.86962891 C64.12278455 25.8749951 66.54763125 25.86966936 68.97265625 25.86328125 C70.50520874 25.86394177 72.03776112 25.8652224 73.5703125 25.8671875 C74.29944855 25.86516327 75.02858459 25.86313904 75.77981567 25.86105347 C80.8850382 25.8850382 80.8850382 25.8850382 82 27 C82.04092937 29.33297433 82.04241723 31.66705225 82 34 C79.36 34 76.72 34 74 34 C74 42.58 74 51.16 74 60 C71.03 60 68.06 60 65 60 C64.95875 59.236875 64.9175 58.47375 64.875 57.6875 C64.58625 56.800625 64.2975 55.91375 64 55 C62.02 54.01 60.04 53.02 58 52 C58 47.05 58 42.1 58 37 C60.31 37.99 62.62 38.98 65 40 C65 38.02 65 36.04 65 34 C62.36 34.33 59.72 34.66 57 35 C56.67 43.25 56.34 51.5 56 60 C52.7 60 49.4 60 46 60 C43.45742447 57.18747201 42.05437634 55.25964194 40.375 52 C39.94316406 51.236875 39.51132812 50.47375 39.06640625 49.6875 C38.0104713 47.81028232 37.00050144 45.90733891 36 44 C35.67 49.28 35.34 54.56 35 60 C32.03 60 29.06 60 26 60 C26 49.11 26 38.22 26 27 C29.3 27 32.6 27 36 27 C38.40179579 29.49735795 39.59733126 31.04726714 41.125 34 C41.50914062 34.66773438 41.89328125 35.33546875 42.2890625 36.0234375 C43.22627578 37.66356073 44.11791625 39.32958053 45 41 C43.78281746 36.91121204 42.35090058 33.71865299 39.875 30.25 C37 26.20574163 37 26.20574163 37 24 C36.16863525 24.02618408 35.33727051 24.05236816 34.48071289 24.0793457 C31.35529141 24.16526271 28.23047754 24.22758211 25.10424805 24.2746582 C23.10229199 24.31176249 21.10088258 24.37534137 19.09960938 24.43945312 C10.83287929 24.54356811 5.82489531 23.75719926 -1 19 C-0.67 12.73 -0.34 6.46 0 0 Z " fill="#0145F4" transform="translate(321,235)"/>
<path d="M0 0 C0 2.31 0 4.62 0 7 C-3 6 -3 6 -5.3125 3.4375 C-7.80872225 0.68425082 -7.80872225 0.68425082 -11.3125 0.6875 C-12.199375 0.790625 -13.08625 0.89375 -14 1 C-12.9275 1.226875 -11.855 1.45375 -10.75 1.6875 C-6.47451576 3.18391948 -5.0536175 3.97833239 -3 8 C-2.71527156 11.2017422 -2.87837369 13.98142965 -4 17 C-5.65 18.65 -7.3 20.3 -9 22 C-4.545 27.445 -4.545 27.445 0 33 C0.33 22.77 0.66 12.54 1 2 C3.97 2 6.94 2 10 2 C10 12.89 10 23.78 10 35 C6.65875 35.165 3.3175 35.33 -0.125 35.5 C-1.16672363 35.57283203 -2.20844727 35.64566406 -3.28173828 35.72070312 C-10.02047862 35.88142707 -10.02047862 35.88142707 -13.01855469 33.18359375 C-14.51967008 31.18210656 -15.81741034 29.20253445 -17 27 C-17.33 29.64 -17.66 32.28 -18 35 C-21.3 35 -24.6 35 -28 35 C-28 26.09 -28 17.18 -28 8 C-28.99 8 -29.98 8 -31 8 C-35 3.65714286 -35 3.65714286 -35 1 C-23.4563121 -4.72076568 -12.0477321 -4.0159107 0 0 Z " fill="#0547F4" transform="translate(310,260)"/>
<path d="M0 0 C0.33 0 0.66 0 1 0 C1 4.29 1 8.58 1 13 C2.65 13 4.3 13 6 13 C4 16 4 16 2 17 C2.71285156 16.95359375 3.42570312 16.9071875 4.16015625 16.859375 C10.79443691 16.60936173 14.65908509 16.96706425 20 21 C24.87101261 26.38375078 25.35423213 29.81568594 25.27734375 36.94921875 C24.86925987 41.43814144 23.80164838 43.46107573 21 47 C15.21956145 51.57618052 10.33081425 52.75297123 3 52 C-3.13871259 49.91283772 -7.12593321 45.65688688 -10.04296875 39.96484375 C-12.96263716 32.4120865 -13.33250933 23.87079892 -10.5 16.25 C-10.005 15.1775 -9.51 14.105 -9 13 C-6.69 13 -4.38 13 -2 13 C-2.02320313 12.22914063 -2.04640625 11.45828125 -2.0703125 10.6640625 C-2.08835938 9.66117188 -2.10640625 8.65828125 -2.125 7.625 C-2.14820313 6.62726563 -2.17140625 5.62953125 -2.1953125 4.6015625 C-2 2 -2 2 0 0 Z " fill="#0548F4" transform="translate(255,244)"/>
<path d="M0 0 C1.43489809 -0.13536774 2.87347107 -0.23217143 4.3125 -0.3125 C5.11300781 -0.37050781 5.91351563 -0.42851562 6.73828125 -0.48828125 C9 0 9 0 10.48632812 2.15820312 C12.02282423 5.04285065 13.28028192 7.91759708 14.48046875 10.95703125 C14.87903076 11.95968018 15.27759277 12.9623291 15.68823242 13.99536133 C16.43036987 15.88484497 16.43036987 15.88484497 17.1875 17.8125 C18.775625 21.834375 20.36375 25.85625 22 30 C22.33 20.1 22.66 10.2 23 0 C25.97 0 28.94 0 32 0 C32 8.91 32 17.82 32 27 C35.96 27 39.92 27 44 27 C44 29.31 44 31.62 44 34 C33.77 34 23.54 34 13 34 C12.34 32.35 11.68 30.7 11 29 C7.04 28.67 3.08 28.34 -1 28 C-1.33 29.98 -1.66 31.96 -2 34 C-5.3 34 -8.6 34 -12 34 C-12 33.34 -12 32.68 -12 32 C-12.99 32 -13.98 32 -15 32 C-15 28.37 -15 24.74 -15 21 C-13.02 21.66 -11.04 22.32 -9 23 C-8.68546875 22.17757813 -8.3709375 21.35515625 -8.046875 20.5078125 C-5.41772936 13.64986032 -2.75158086 6.80977833 0 0 Z " fill="#0648F3" transform="translate(413,261)"/>
<path d="M0 0 C1.23556641 0.01740234 1.23556641 0.01740234 2.49609375 0.03515625 C3.32238281 0.04417969 4.14867187 0.05320312 5 0.0625 C5.63808594 0.07410156 6.27617188 0.08570313 6.93359375 0.09765625 C9.46138123 5.06606612 11.72920282 9.95407741 13.93359375 15.09765625 C15.91359375 10.14765625 17.89359375 5.19765625 19.93359375 0.09765625 C27.6484375 0 27.6484375 0 29.93359375 0.09765625 C31.59595285 1.76001535 31.27815838 3.84102487 31.46875 6.12890625 C31.59926758 7.68738281 31.59926758 7.68738281 31.73242188 9.27734375 C31.86293945 10.92089844 31.86293945 10.92089844 31.99609375 12.59765625 C32.08697266 13.66242188 32.17785156 14.7271875 32.27148438 15.82421875 C32.77102643 21.93891393 33.03025066 27.96316408 32.93359375 34.09765625 C29.63359375 34.09765625 26.33359375 34.09765625 22.93359375 34.09765625 C22.43859375 27.66265625 22.43859375 27.66265625 21.93359375 21.09765625 C20.28359375 25.38765625 18.63359375 29.67765625 16.93359375 34.09765625 C14.95359375 34.09765625 12.97359375 34.09765625 10.93359375 34.09765625 C9.28359375 30.13765625 7.63359375 26.17765625 5.93359375 22.09765625 C4.71665499 24.53153378 4.61399479 26.51604471 4.37109375 29.22265625 C4.28730469 30.13273437 4.20351563 31.0428125 4.1171875 31.98046875 C4.05660156 32.67914063 3.99601562 33.3778125 3.93359375 34.09765625 C0.96359375 34.09765625 -2.00640625 34.09765625 -5.06640625 34.09765625 C-5.2888118 25.72038047 -5.05749163 17.55315463 -4.12890625 9.22265625 C-4.04205566 8.43197754 -3.95520508 7.64129883 -3.86572266 6.82666016 C-3.07110762 0.14513741 -3.07110762 0.14513741 0 0 Z " fill="#0849F4" transform="translate(52.06640625,260.90234375)"/>
<path d="M0 0 C8.62474959 0.85868664 14.18297448 6.59265789 19.53515625 13.06640625 C28.87621831 25.62634781 32.75115285 37.42004617 31 53 C29.57007126 60.42992874 29.57007126 60.42992874 28 62 C25.66702567 62.04092937 23.33294775 62.04241723 21 62 C20.72414063 63.00160156 20.44828125 64.00320313 20.1640625 65.03515625 C19.06086161 68.89635937 17.74171447 72.66105213 16.375 76.4375 C15.92898438 77.67371094 15.48296875 78.90992188 15.0234375 80.18359375 C14.68570312 81.11300781 14.34796875 82.04242188 14 83 C10.87709365 82.51421457 8.00419641 82.0013988 5 81 C5 78.69 5 76.38 5 74 C7.64 74 10.28 74 13 74 C13 70.04 13 66.08 13 62 C11.68 62 10.36 62 9 62 C11.73178808 53.64072848 11.73178808 53.64072848 13.125 50.3125 C16.70695301 40.8459099 15.77726449 30.21393643 12.3359375 20.890625 C9.06968587 13.82329691 4.07599742 7.84508794 -1 2 C-0.67 1.34 -0.34 0.68 0 0 Z " fill="#592D10" transform="translate(393,197)"/>
<path d="M0 0 C3.279375 -0.020625 6.55875 -0.04125 9.9375 -0.0625 C10.97253662 -0.071604 12.00757324 -0.08070801 13.07397461 -0.09008789 C14.28839233 -0.09383423 14.28839233 -0.09383423 15.52734375 -0.09765625 C16.77632446 -0.10551147 16.77632446 -0.10551147 18.05053711 -0.11352539 C20 0 20 0 21 1 C21.04092937 3.33297433 21.04241723 5.66705225 21 8 C17.37 8 13.74 8 10 8 C10 9.98 10 11.96 10 14 C13.63 14 17.26 14 21 14 C21 16.31 21 18.62 21 21 C17.37 21 13.74 21 10 21 C10 22.98 10 24.96 10 27 C13.63 27 17.26 27 21 27 C21 29.31 21 31.62 21 34 C14.07 34 7.14 34 0 34 C0 22.78 0 11.56 0 0 Z " fill="#094AF4" transform="translate(323,261)"/>
<path d="M0 0 C0.495 0.99 0.495 0.99 1 2 C-0.65 2 -2.3 2 -4 2 C-4 6.95 -4 11.9 -4 17 C-4.66 17 -5.32 17 -6 17 C-6.13277344 16.36191406 -6.26554687 15.72382813 -6.40234375 15.06640625 C-6.66724609 13.82697266 -6.66724609 13.82697266 -6.9375 12.5625 C-7.11152344 11.73878906 -7.28554688 10.91507813 -7.46484375 10.06640625 C-7.80752994 8.02338796 -7.80752994 8.02338796 -9 7 C-8.67 7.66 -8.34 8.32 -8 9 C-7.40465933 14.28152224 -7.1306386 18.56976027 -9.9375 23.1875 C-14.05574287 25.62482741 -17.3239696 25.94028872 -22 25 C-24.87029869 23.20606332 -26.49131638 22.01736724 -28 19 C-29.32 19 -30.64 19 -32 19 C-32.38218767 17.34385343 -32.71395102 15.67542976 -33 14 C-32.67 13.67 -32.34 13.34 -32 13 C-31.86431681 9.33655389 -31.83538574 6.49384279 -33 3 C-22.43319404 -1.24694594 -11.16318011 -0.28805348 0 0 Z " fill="#FE3636" transform="translate(305,230)"/>
<path d="M0 0 C1.64627294 0.71226503 3.25404005 1.51236885 4.8515625 2.328125 C3.8615625 4.308125 2.8715625 6.288125 1.8515625 8.328125 C-3.5934375 7.833125 -3.5934375 7.833125 -9.1484375 7.328125 C-7.06651967 11.49196067 -6.6548048 11.91967862 -2.7734375 13.828125 C3.71833296 17.26740436 3.71833296 17.26740436 5.8515625 20.328125 C6.36144197 23.75160141 6.05907992 25.80322799 4.7890625 29.015625 C1.70698647 32.69423188 -1.71206027 33.96944828 -6.32421875 34.6484375 C-12.26630452 34.95631759 -16.04968681 33.29467086 -21.1484375 30.328125 C-20.3984375 27.390625 -20.3984375 27.390625 -19.1484375 24.328125 C-17.2734375 23.328125 -17.2734375 23.328125 -15.1484375 23.328125 C-13.80655932 23.9774209 -12.47364253 24.64544362 -11.1484375 25.328125 C-8.48134681 25.49562914 -8.48134681 25.49562914 -6.1484375 25.328125 C-5.8184375 24.008125 -5.4884375 22.688125 -5.1484375 21.328125 C-6.416875 21.01875 -6.416875 21.01875 -7.7109375 20.703125 C-12.00228726 18.9865851 -15.30372772 17.02624772 -18.1484375 13.328125 C-19.03689171 10.45470662 -19.01275579 8.20523931 -18.1484375 5.328125 C-13.18135966 -0.81536602 -7.5934373 -2.37467494 0 0 Z " fill="#084AF4" transform="translate(228.1484375,261.671875)"/>
<path d="M0 0 C3.5625 1.5 3.5625 1.5 6 3 C5.34 4.98 4.68 6.96 4 9 C0.7 8.67 -2.6 8.34 -6 8 C-5.46521848 11.99233149 -5.46521848 11.99233149 -3.0390625 13.37890625 C-2.24242188 13.76949219 -1.44578125 14.16007812 -0.625 14.5625 C2.39125275 16.06080145 4.90607798 17.31158908 7 20 C7.52154963 24.61943956 7.66971702 26.85900064 5.3125 30.875 C1.02467142 34.81516681 -2.96890828 35.43110053 -8.640625 35.3359375 C-12.61247671 34.77040895 -15.55309352 33.00547286 -19 31 C-18.38722388 28.03824877 -17.74627478 26.61941217 -16 24 C-14.9790625 24.2165625 -14.9790625 24.2165625 -13.9375 24.4375 C-10.63726918 25.06945909 -7.32855574 25.54313941 -4 26 C-4.16404034 24.07093296 -4.16404034 24.07093296 -5 22 C-7.00430763 20.54046749 -7.00430763 20.54046749 -9.4375 19.4375 C-12.78401546 17.79915776 -13.86446085 17.20330873 -16 14 C-16.34061873 10.9830912 -16.57212107 8.90592185 -16 6 C-11.20000747 0.06316713 -7.31311831 -0.73498676 0 0 Z " fill="#0648F4" transform="translate(117,261)"/>
<path d="M0 0 C4.82380802 -0.0246519 9.64757967 -0.04283693 14.47143555 -0.05493164 C16.11369464 -0.05997174 17.75594923 -0.06680378 19.39819336 -0.07543945 C21.75375479 -0.08751926 24.10925709 -0.09323139 26.46484375 -0.09765625 C27.20339096 -0.10281754 27.94193817 -0.10797882 28.7028656 -0.11329651 C30.46898088 -0.1134925 32.23497146 -0.06194719 34 0 C35 1 35 1 35.0625 4.5625 C35.041875 5.696875 35.02125 6.83125 35 8 C32.36 8 29.72 8 27 8 C27 16.58 27 25.16 27 34 C24.03 34 21.06 34 18 34 C17.95875 33.236875 17.9175 32.47375 17.875 31.6875 C17.58625 30.800625 17.2975 29.91375 17 29 C15.02 28.01 13.04 27.02 11 26 C11 21.05 11 16.1 11 11 C14.465 12.485 14.465 12.485 18 14 C18 12.02 18 10.04 18 8 C13.545 8.495 13.545 8.495 9 9 C9 6.36 9 3.72 9 1 C6.03 1 3.06 1 0 1 C0 0.67 0 0.34 0 0 Z " fill="#0C4DF4" transform="translate(368,261)"/>
<path d="M0 0 C2.93423195 1.79646854 4.47205355 2.9441071 6 6 C6.59200469 11.25192733 6.84687376 15.56031461 4.125 20.1875 C-0.30154413 22.7548956 -4.00971415 23.11258832 -9 22 C-12.71574695 19.25034726 -13.70281586 17.83129684 -14.43359375 13.328125 C-14.62605157 9.01240422 -14.34382736 5.79705434 -12.625 1.8125 C-8.58530828 -0.97681095 -4.75255372 -0.85361402 0 0 Z " fill="#FF3838" transform="translate(87,233)"/>
<path d="M0 0 C2.97 0 5.94 0 9 0 C10 1 10 1 10.11352539 4.14282227 C10.11336633 5.53402697 10.10767506 6.92523761 10.09765625 8.31640625 C10.0962413 9.04746078 10.09482635 9.77851532 10.09336853 10.53172302 C10.08775408 12.87535632 10.07519922 15.21889539 10.0625 17.5625 C10.05748686 19.14778508 10.05292363 20.73307166 10.04882812 22.31835938 C10.03777997 26.2122761 10.02050572 30.10612205 10 34 C6.7 34 3.4 34 0 34 C0 22.78 0 11.56 0 0 Z " fill="#0E4EF4" transform="translate(196,261)"/>
<path d="M0 0 C0.721875 0.00257813 1.44375 0.00515625 2.1875 0.0078125 C2.909375 0.00523437 3.63125 0.00265625 4.375 0 C6.1875 0.1328125 6.1875 0.1328125 7.1875 1.1328125 C7.27593793 3.58111676 7.30278752 6.00101849 7.28515625 8.44921875 C7.2837413 9.18027328 7.28232635 9.91132782 7.28086853 10.66453552 C7.27525408 13.00816882 7.26269922 15.35170789 7.25 17.6953125 C7.24498686 19.28059758 7.24042363 20.86588416 7.23632812 22.45117188 C7.22527997 26.3450886 7.20800572 30.23893455 7.1875 34.1328125 C3.8875 34.1328125 0.5875 34.1328125 -2.8125 34.1328125 C-2.83715288 29.45141996 -2.85533739 24.77006491 -2.86743164 20.08862305 C-2.87247157 18.49486636 -2.8793035 16.90111431 -2.88793945 15.30737305 C-2.90001999 13.02130997 -2.90573155 10.73530783 -2.91015625 8.44921875 C-2.91531754 7.73254532 -2.92047882 7.01587189 -2.92579651 6.27748108 C-2.92599263 4.56217578 -2.87442007 2.84699984 -2.8125 1.1328125 C-1.8125 0.1328125 -1.8125 0.1328125 0 0 Z " fill="#0C4DF4" transform="translate(88.8125,260.8671875)"/>
<path d="M0 0 C24.27866491 -2.38074005 24.27866491 -2.38074005 30.22558594 1.42382812 C33.85540576 5.35242471 35.7243068 9.85788863 37 15 C36.67 15.99 36.34 16.98 36 18 C34.86863414 16.44210317 33.74517679 14.87846143 32.625 13.3125 C31.99851562 12.44238281 31.37203125 11.57226562 30.7265625 10.67578125 C29.10584157 8.16403048 28.00141912 5.80700813 27 3 C23.7 3 20.4 3 17 3 C17 13.89 17 24.78 17 36 C16.67 36 16.34 36 16 36 C15.67 34.02 15.34 32.04 15 30 C11.04 29.67 7.08 29.34 3 29 C3 27.02 3 25.04 3 23 C6.63 23 10.26 23 14 23 C14 20.69 14 18.38 14 16 C10.37 16 6.74 16 3 16 C3 14.02 3 12.04 3 10 C6.63 10 10.26 10 14 10 C13.67 7.36 13.34 4.72 13 2 C13.99 1.67 14.98 1.34 16 1 C10.72 1 5.44 1 0 1 C0 0.67 0 0.34 0 0 Z " fill="#FAFCFE" transform="translate(330,259)"/>
<path d="M0 0 C2.84710418 0.59719746 4.32721083 1.47669788 6.40234375 3.50390625 C6.40234375 4.49390625 6.40234375 5.48390625 6.40234375 6.50390625 C4.52734375 7.12890625 4.52734375 7.12890625 2.40234375 7.50390625 C1.74234375 6.84390625 1.08234375 6.18390625 0.40234375 5.50390625 C-2.90449091 5.79373894 -2.90449091 5.79373894 -5.59765625 7.50390625 C-5.66945589 9.02318663 -5.68157632 10.54558107 -5.66015625 12.06640625 C-5.65113281 12.89269531 -5.64210938 13.71898437 -5.6328125 14.5703125 C-5.62121094 15.20839844 -5.60960937 15.84648437 -5.59765625 16.50390625 C-2.12617783 17.25347782 -2.12617783 17.25347782 1.40234375 17.50390625 C1.40234375 16.51390625 1.40234375 15.52390625 1.40234375 14.50390625 C-0.24765625 14.17390625 -1.89765625 13.84390625 -3.59765625 13.50390625 C-3.59765625 12.18390625 -3.59765625 10.86390625 -3.59765625 9.50390625 C-2.13942413 9.47690195 -0.6810495 9.45750838 0.77734375 9.44140625 C1.58945312 9.42980469 2.4015625 9.41820312 3.23828125 9.40625 C5.40234375 9.50390625 5.40234375 9.50390625 7.40234375 10.50390625 C7.40234375 14.46390625 7.40234375 18.42390625 7.40234375 22.50390625 C5.17378801 22.58532845 2.9443672 22.64328704 0.71484375 22.69140625 C-1.14720703 22.74361328 -1.14720703 22.74361328 -3.046875 22.796875 C-6.81432557 22.48602924 -8.62560542 21.78119195 -11.59765625 19.50390625 C-13.58890183 15.52141508 -13.10928546 10.83448204 -12.59765625 6.50390625 C-10.34082276 0.43578763 -5.85031298 -0.13521525 0 0 Z " fill="#FD4040" transform="translate(336.59765625,232.49609375)"/>
<path d="M0 0 C1.66611905 -0.042721 3.33382885 -0.04063832 5 0 C6 1 6 1 6.0625 4.5625 C6.041875 5.696875 6.02125 6.83125 6 8 C8.64 8 11.28 8 14 8 C14 5.36 14 2.72 14 0 C16.97 0.495 16.97 0.495 20 1 C20 7.93 20 14.86 20 22 C18.35 22 16.7 22 15 22 C14 21 14 21 13.90234375 19.15234375 C13.95117188 16.07617188 13.95117188 16.07617188 14 13 C11.36 13 8.72 13 6 13 C6 15.97 6 18.94 6 22 C4.33388095 22.042721 2.66617115 22.04063832 1 22 C0 21 0 21 -0.11352539 18.95874023 C-0.10828857 18.08419189 -0.10305176 17.20964355 -0.09765625 16.30859375 C-0.09443359 15.36435547 -0.09121094 14.42011719 -0.08789062 13.44726562 C-0.07951172 12.45404297 -0.07113281 11.46082031 -0.0625 10.4375 C-0.05798828 9.44041016 -0.05347656 8.44332031 -0.04882812 7.41601562 C-0.03700007 4.94395151 -0.02051849 2.47200482 0 0 Z " fill="#FF4343" transform="translate(348,233)"/>
<path d="M0 0 C2.97 0 5.94 0 9 0 C9 10.89 9 21.78 9 33 C6.03 33 3.06 33 0 33 C0 22.11 0 11.22 0 0 Z " fill="#0044F4" transform="translate(311,262)"/>
<path d="M0 0 C1.91595968 -0.08133791 3.83291932 -0.13934367 5.75 -0.1875 C7.35101563 -0.23970703 7.35101563 -0.23970703 8.984375 -0.29296875 C12.3449718 0.0335141 13.68314066 0.57228614 16 3 C16.375 6.5625 16.375 6.5625 16 10 C15.34 10.66 14.68 11.32 14 12 C14.495 13.093125 14.99 14.18625 15.5 15.3125 C17 19 17 19 17 22 C15.35 21.67 13.7 21.34 12 21 C11.34 18.69 10.68 16.38 10 14 C8.68 14 7.36 14 6 14 C6 16.64 6 19.28 6 22 C4.33388095 22.042721 2.66617115 22.04063832 1 22 C0 21 0 21 -0.11352539 18.95874023 C-0.10828857 18.08419189 -0.10305176 17.20964355 -0.09765625 16.30859375 C-0.09443359 15.36435547 -0.09121094 14.42011719 -0.08789062 13.44726562 C-0.07951172 12.45404297 -0.07113281 11.46082031 -0.0625 10.4375 C-0.05798828 9.44041016 -0.05347656 8.44332031 -0.04882812 7.41601562 C-0.03700007 4.94395151 -0.02051849 2.47200482 0 0 Z " fill="#FF3B3B" transform="translate(121,233)"/>
<path d="M0 0 C5 0 5 0 6.73046875 1.64453125 C7.45169922 2.71767578 7.45169922 2.71767578 8.1875 3.8125 C8.67605469 4.52019531 9.16460937 5.22789062 9.66796875 5.95703125 C10.10753906 6.63121094 10.54710937 7.30539063 11 8 C11.99 9.485 11.99 9.485 13 11 C13.33 7.37 13.66 3.74 14 0 C15.65 0.33 17.3 0.66 19 1 C19 7.93 19 14.86 19 22 C17.35 22 15.7 22 14 22 C12.015625 19.8828125 12.015625 19.8828125 10.25 17.125 C9.65703125 16.22007812 9.0640625 15.31515625 8.453125 14.3828125 C7 12 7 12 6 10 C5.67 13.96 5.34 17.92 5 22 C3.35 21.67 1.7 21.34 0 21 C0 14.07 0 7.14 0 0 Z " fill="#FF3434" transform="translate(142,233)"/>
<path d="M0 0 C11.37060758 -0.49437424 11.37060758 -0.49437424 14.3671875 1.859375 C16 4 16 4 16.375 6.5 C16 9 16 9 14.890625 10.859375 C13.70851214 13.70059363 14.29281033 14.91965779 15.375 17.75 C15.67148437 18.54921875 15.96796875 19.3484375 16.2734375 20.171875 C16.51320313 20.77515625 16.75296875 21.3784375 17 22 C15.35 22 13.7 22 12 22 C11.01 19.03 10.02 16.06 9 13 C7.68 13 6.36 13 5 13 C5 15.97 5 18.94 5 22 C3.35 21.67 1.7 21.34 0 21 C0 14.07 0 7.14 0 0 Z " fill="#FF3535" transform="translate(257,233)"/>
<path d="M0 0 C1.66611905 -0.042721 3.33382885 -0.04063832 5 0 C6 1 6 1 6.0625 4.5625 C6.041875 5.696875 6.02125 6.83125 6 8 C8.64 8 11.28 8 14 8 C14 5.36 14 2.72 14 0 C15.65 0.33 17.3 0.66 19 1 C19 7.93 19 14.86 19 22 C17.35 21.67 15.7 21.34 14 21 C14 18.36 14 15.72 14 13 C11.36 13 8.72 13 6 13 C6 15.97 6 18.94 6 22 C4.33388095 22.042721 2.66617115 22.04063832 1 22 C0 21 0 21 -0.11352539 18.95874023 C-0.10828857 18.08419189 -0.10305176 17.20964355 -0.09765625 16.30859375 C-0.09443359 15.36435547 -0.09121094 14.42011719 -0.08789062 13.44726562 C-0.07951172 12.45404297 -0.07113281 11.46082031 -0.0625 10.4375 C-0.05798828 9.44041016 -0.05347656 8.44332031 -0.04882812 7.41601562 C-0.03700007 4.94395151 -0.02051849 2.47200482 0 0 Z " fill="#FF3E3E" transform="translate(232,233)"/>
<path d="M0 0 C1.66611905 -0.042721 3.33382885 -0.04063832 5 0 C7.05922402 2.05922402 6.41427579 6.21708124 6.5625 9.0625 C6.60568359 9.82111328 6.64886719 10.57972656 6.69335938 11.36132812 C6.79973633 13.24065438 6.90039934 15.12030244 7 17 C8.65 16.67 10.3 16.34 12 16 C12.33 10.72 12.66 5.44 13 0 C14.65 0 16.3 0 18 0 C20.03378902 2.03378902 19.27581457 5.97168997 19.3125 8.75 C19.34150391 9.46671875 19.37050781 10.1834375 19.40039062 10.921875 C19.44380479 14.55530649 19.11232824 16.80483609 17.2890625 19.97265625 C14.65824703 22.30267882 13.53437989 22.70354875 10.0625 22.6875 C9.22847656 22.71199219 8.39445312 22.73648438 7.53515625 22.76171875 C4.48214047 21.84440276 2.87511888 20.36632077 0.95727539 17.83813477 C-0.77242442 14.51681115 -0.52750519 11.28339601 -0.3125 7.625 C-0.28994141 6.88894531 -0.26738281 6.15289062 -0.24414062 5.39453125 C-0.18572927 3.59546158 -0.09606337 1.79745247 0 0 Z " fill="#FF4141" transform="translate(97,233)"/>
<path d="M0 0 C4.62 0 9.24 0 14 0 C14.33 1.65 14.66 3.3 15 5 C12.03 5 9.06 5 6 5 C6 5.99 6 6.98 6 8 C8.31 8 10.62 8 13 8 C13.33 9.65 13.66 11.3 14 13 C11.36 13 8.72 13 6 13 C6 14.32 6 15.64 6 17 C8.97 17 11.94 17 15 17 C15.33 18.65 15.66 20.3 16 22 C13.52076199 22.02685095 11.0418116 22.04676547 8.5625 22.0625 C7.85544922 22.07087891 7.14839844 22.07925781 6.41992188 22.08789062 C4.61306441 22.09653588 2.80612397 22.05220011 1 22 C0 21 0 21 -0.11352539 18.95874023 C-0.10828857 18.08419189 -0.10305176 17.20964355 -0.09765625 16.30859375 C-0.09443359 15.36435547 -0.09121094 14.42011719 -0.08789062 13.44726562 C-0.07951172 12.45404297 -0.07113281 11.46082031 -0.0625 10.4375 C-0.05798828 9.44041016 -0.05347656 8.44332031 -0.04882812 7.41601562 C-0.03700023 4.94398513 -0.01906415 2.47198528 0 0 Z " fill="#FF4040" transform="translate(166,233)"/>
<path d="M0 0 C1.98 0.495 1.98 0.495 4 1 C3.97679687 1.96421875 3.95359375 2.9284375 3.9296875 3.921875 C3.91164063 5.18515625 3.89359375 6.4484375 3.875 7.75 C3.85179687 9.00296875 3.82859375 10.2559375 3.8046875 11.546875 C3.987277 14.77505744 4.09624444 16.43771265 6 19 C9.42824391 21.48307386 13.12517047 21.3958428 17.25 21.625 C18.51328125 21.69976562 19.7765625 21.77453125 21.078125 21.8515625 C22.04234375 21.90054687 23.0065625 21.94953125 24 22 C24 19.36 24 16.72 24 14 C24.99 14.33 25.98 14.66 27 15 C27 17.31 27 19.62 27 22 C27.8353125 21.78730469 27.8353125 21.78730469 28.6875 21.5703125 C32.37438584 20.86033786 34.90383615 20.38788101 38.2734375 22.26953125 C39.64120915 23.35510466 40.97760907 24.48183206 42.2734375 25.65234375 C44.02910566 27.30764894 44.02910566 27.30764894 47 27 C47 32.61 47 38.22 47 44 C45 42 45 42 44.59765625 39.73046875 C43.85672052 36.34540944 42.37122739 34.17597915 40.4375 31.3125 C37 26.20120724 37 26.20120724 37 24 C36.16863525 24.02618408 35.33727051 24.05236816 34.48071289 24.0793457 C31.35529141 24.16526271 28.23047754 24.22758211 25.10424805 24.2746582 C23.10229199 24.31176249 21.10088258 24.37534137 19.09960938 24.43945312 C10.83287929 24.54356811 5.82489531 23.75719926 -1 19 C-0.67 12.73 -0.34 6.46 0 0 Z " fill="#0E7CB3" transform="translate(321,235)"/>
<path d="M0 0 C2.475 0.495 2.475 0.495 5 1 C5.33 6.28 5.66 11.56 6 17 C7.65 17 9.3 17 11 17 C12.52106634 13.95786733 12.37429338 10.71952428 12.5625 7.375 C12.60568359 6.66859375 12.64886719 5.9621875 12.69335938 5.234375 C12.79944751 3.48981463 12.90022889 1.74493303 13 0 C14.65 0.33 16.3 0.66 18 1 C18.10812003 3.75105422 18.18734945 6.49785087 18.25 9.25 C18.30027344 10.41595703 18.30027344 10.41595703 18.3515625 11.60546875 C18.41530799 15.33457988 18.43235029 17.36238248 16.296875 20.51171875 C13.64240291 22.23170832 12.14601305 22.56729575 9 22.5625 C8.154375 22.58441406 7.30875 22.60632813 6.4375 22.62890625 C4 22 4 22 1.703125 20.015625 C-0.59681701 15.94325062 -0.44979014 12.77114685 -0.25 8.1875 C-0.23195313 7.39923828 -0.21390625 6.61097656 -0.1953125 5.79882812 C-0.14844048 3.86535739 -0.0767041 1.93251715 0 0 Z " fill="#FE3434" transform="translate(302,233)"/>
<path d="M0 0 C3.5 0.625 3.5 0.625 5.9375 2.625 C7.95048849 6.48993789 8.18984657 9.35657433 7.5 13.625 C6.4375 16.5625 6.4375 16.5625 4.5 18.625 C1.0625 19.6875 1.0625 19.6875 -2.5 19.625 C-5.44572605 17.45446501 -6.34060941 16.10317177 -7.5 12.625 C-7.87269894 8.59985144 -7.85122109 6.28529564 -5.9375 2.6875 C-3.5 0.625 -3.5 0.625 0 0 Z " fill="#F7F9FE" transform="translate(262.5,268.375)"/>
<path d="M0 0 C3.22886009 -0.11667875 6.45717445 -0.18740546 9.6875 -0.25 C11.05551758 -0.30027344 11.05551758 -0.30027344 12.45117188 -0.3515625 C19.2829415 -0.45093369 19.2829415 -0.45093369 23.03125 1.90625 C23.6809375 2.5971875 24.330625 3.288125 25 4 C25.8971875 4.86625 25.8971875 4.86625 26.8125 5.75 C27.204375 6.1625 27.59625 6.575 28 7 C28 5.02 28 3.04 28 1 C31.3 1 34.6 1 38 1 C38 1.33 38 1.66 38 2 C35.03 2 32.06 2 29 2 C29 12.56 29 23.12 29 34 C25.82270675 30.82270675 23.25915942 28.21605594 20.6875 24.6875 C20.17574219 23.99011719 19.66398437 23.29273438 19.13671875 22.57421875 C18.76160156 22.05472656 18.38648438 21.53523438 18 21 C18.804375 20.525625 19.60875 20.05125 20.4375 19.5625 C23.56400824 16.43599176 24.00953376 14.50938904 24.265625 10.19140625 C24.13892677 7.69194716 24.13892677 7.69194716 21.875 5 C17.1639654 1.72275854 12.322851 1.80616782 6.6875 1.4375 C5.43324219 1.35371094 4.17898438 1.26992188 2.88671875 1.18359375 C1.45779297 1.09271484 1.45779297 1.09271484 0 1 C0 0.67 0 0.34 0 0 Z " fill="#DDE7FC" transform="translate(282,260)"/>
<path d="M0 0 C0.495 0.99 0.495 0.99 1 2 C-0.65 2 -2.3 2 -4 2 C-4 6.95 -4 11.9 -4 17 C-4.66 17 -5.32 17 -6 17 C-6.09796875 16.39671875 -6.1959375 15.7934375 -6.296875 15.171875 C-6.96178745 11.61803259 -7.66047317 8.60524347 -9.4375 5.4375 C-13.75518788 3.01538241 -18.18532173 3.31950596 -23 4 C-25.85222791 5.10205377 -25.85222791 5.10205377 -27 8 C-27.60101188 11.66406366 -27.8721149 15.29133196 -28 19 C-29.32 19 -30.64 19 -32 19 C-32.38218767 17.34385343 -32.71395102 15.67542976 -33 14 C-32.67 13.67 -32.34 13.34 -32 13 C-31.86431681 9.33655389 -31.83538574 6.49384279 -33 3 C-22.43319404 -1.24694594 -11.16318011 -0.28805348 0 0 Z " fill="#2883B4" transform="translate(305,230)"/>
<path d="M0 0 C2.35546875 -0.1875 2.35546875 -0.1875 5 0 C7.3125 3 7.3125 3 9 6 C11.0245738 4.06745228 12.42105792 2.36841312 14 0 C15.65 0.33 17.3 0.66 19 1 C18.07931911 4.0453291 17.26133844 6.62367264 15.4375 9.25 C13.30890782 13.32208938 13.25541499 17.46418209 13 22 C11.33388095 22.042721 9.66617115 22.04063832 8 22 C7 21 7 21 6.8125 17.1875 C6.21318829 10.78106451 3.06928362 5.54723737 0 0 Z " fill="#FF3B3B" transform="translate(183,233)"/>
<path d="M0 0 C0.33 0 0.66 0 1 0 C1 4.29 1 8.58 1 13 C2.65 13 4.3 13 6 13 C4 16 4 16 1.6875 16.8125 C-1.07368923 18.03256036 -1.87122173 18.83047094 -3.6875 21.125 C-4.8321875 22.548125 -4.8321875 22.548125 -6 24 C-6.66 24 -7.32 24 -8 24 C-8.33 29.28 -8.66 34.56 -9 40 C-12.49532453 36.50467547 -12.17526062 31.93967878 -12.25 27.1875 C-12.22317325 21.76178912 -11.26311362 17.90341284 -9 13 C-6.69 13 -4.38 13 -2 13 C-2.02320313 12.22914063 -2.04640625 11.45828125 -2.0703125 10.6640625 C-2.08835938 9.66117188 -2.10640625 8.65828125 -2.125 7.625 C-2.14820313 6.62726563 -2.17140625 5.62953125 -2.1953125 4.6015625 C-2 2 -2 2 0 0 Z " fill="#1780B8" transform="translate(255,244)"/>
<path d="M0 0 C5.28 0 10.56 0 16 0 C16.33 1.65 16.66 3.3 17 5 C15.02 5 13.04 5 11 5 C11 10.61 11 16.22 11 22 C9.35 22 7.7 22 6 22 C6 16.06 6 10.12 6 4 C4.02 4 2.04 4 0 4 C0 2.68 0 1.36 0 0 Z " fill="#FF3535" transform="translate(212,233)"/>
<path d="M0 0 C1.65 0.33 3.3 0.66 5 1 C5.08086376 3.93804996 5.1404283 6.87388075 5.1875 9.8125 C5.21263672 10.64587891 5.23777344 11.47925781 5.26367188 12.33789062 C5.27817383 13.54155273 5.27817383 13.54155273 5.29296875 14.76953125 C5.31653442 15.87711792 5.31653442 15.87711792 5.34057617 17.00708008 C4.90398513 19.56184183 4.01863987 20.42588164 2 22 C-0.15625 22.3984375 -0.15625 22.3984375 -2.5 22.375 C-3.2734375 22.38273437 -4.046875 22.39046875 -4.84375 22.3984375 C-7.48381984 21.91059851 -8.41233799 21.13584498 -10 19 C-9.6875 16.8125 -9.6875 16.8125 -9 15 C-8.01 15 -7.02 15 -6 15 C-5.67 15.66 -5.34 16.32 -5 17 C-3.68 16.67 -2.36 16.34 -1 16 C-0.67 10.72 -0.34 5.44 0 0 Z " fill="#FF3535" transform="translate(63,233)"/>
<path d="M0 0 C0 2.31 0 4.62 0 7 C-3 6 -3 6 -5.3125 3.4375 C-7.80872225 0.68425082 -7.80872225 0.68425082 -11.3125 0.6875 C-12.199375 0.790625 -13.08625 0.89375 -14 1 C-14 1.33 -14 1.66 -14 2 C-18.62 2 -23.24 2 -28 2 C-28 3.98 -28 5.96 -28 8 C-28.99 8 -29.98 8 -31 8 C-35 3.65714286 -35 3.65714286 -35 1 C-23.4563121 -4.72076568 -12.0477321 -4.0159107 0 0 Z " fill="#6AB2E7" transform="translate(310,260)"/>
<path d="M0 0 C1.65 0.33 3.3 0.66 5 1 C5 4.96 5 8.92 5 13 C2.36 13 -0.28 13 -3 13 C-3 15.31 -3 17.62 -3 20 C-1.8553125 20.2165625 -1.8553125 20.2165625 -0.6875 20.4375 C2 21 2 21 5 22 C4.67 23.65 4.34 25.3 4 27 C1.69 26.01 -0.62 25.02 -3 24 C-2.96519531 24.68707031 -2.93039062 25.37414062 -2.89453125 26.08203125 C-2.86746094 26.98308594 -2.84039062 27.88414062 -2.8125 28.8125 C-2.76029297 30.15248047 -2.76029297 30.15248047 -2.70703125 31.51953125 C-3 34 -3 34 -6 37 C-6 28.42 -6 19.84 -6 11 C-3.36 11 -0.72 11 2 11 C1.67 8.36 1.34 5.72 1 3 C1.99 2.67 2.98 2.34 4 2 C2.68 2 1.36 2 0 2 C0 1.34 0 0.68 0 0 Z " fill="#C6D4EB" transform="translate(401,258)"/>
<path d="M0 0 C24.27866491 -2.38074005 24.27866491 -2.38074005 30.22558594 1.42382812 C33.85540576 5.35242471 35.7243068 9.85788863 37 15 C36.67 15.99 36.34 16.98 36 18 C34.86863414 16.44210317 33.74517679 14.87846143 32.625 13.3125 C31.99851562 12.44238281 31.37203125 11.57226562 30.7265625 10.67578125 C29.10584157 8.16403048 28.00141912 5.80700813 27 3 C23.7 3 20.4 3 17 3 C17 13.89 17 24.78 17 36 C16.67 36 16.34 36 16 36 C16 24.45 16 12.9 16 1 C10.72 1 5.44 1 0 1 C0 0.67 0 0.34 0 0 Z " fill="#92B8ED" transform="translate(330,259)"/>
<path d="M0 0 C5.875 0.875 5.875 0.875 7 2 C7.203125 3.9609375 7.203125 3.9609375 7.25 6.375 C7.28867187 7.56222656 7.28867187 7.56222656 7.328125 8.7734375 C7 11 7 11 5.68359375 12.80859375 C4 14 4 14 0.8125 13.6875 C-0.115625 13.460625 -1.04375 13.23375 -2 13 C-3.45295405 4.80743982 -3.45295405 4.80743982 -1.5625 1.4375 C-1.046875 0.963125 -0.53125 0.48875 0 0 Z " fill="#FEF1F1" transform="translate(285,237)"/>
<path d="M0 0 C3.625 -0.1875 3.625 -0.1875 7 0 C8.54586876 3.09173752 8.29359521 5.59429552 8 9 C6.3125 11.5 6.3125 11.5 4 13 C1.3125 12.875 1.3125 12.875 -1 12 C-2.50934217 8.98131566 -2.17510672 6.32702771 -2 3 C-1.34 2.01 -0.68 1.02 0 0 Z " fill="#FFF4F4" transform="translate(80,238)"/>
<path d="M0 0 C3.465 1.485 3.465 1.485 7 3 C7 7.95 7 12.9 7 18 C4.69 17.01 2.38 16.02 0 15 C0 10.05 0 5.1 0 0 Z " fill="#2084BB" transform="translate(379,272)"/>
<path d="M0 0 C5.94 0 11.88 0 18 0 C18.33 0.66 18.66 1.32 19 2 C17.35 2 15.7 2 14 2 C14 6.95 14 11.9 14 17 C13.34 17 12.68 17 12 17 C11.90203125 16.39671875 11.8040625 15.7934375 11.703125 15.171875 C10.51534694 8.64611844 10.51534694 8.64611844 6 4 C2.86649283 2.73215876 2.86649283 2.73215876 0 2 C0 1.34 0 0.68 0 0 Z " fill="#0577B0" transform="translate(287,230)"/>
<path d="M0 0 C-4.81415929 6.36156764 -4.81415929 6.36156764 -8 8 C-13.4108182 7.89979966 -16.80486814 6.37656955 -21 3 C-21 2.34 -21 1.68 -21 1 C-14.45323741 0.87410072 -14.45323741 0.87410072 -11.75 1.625 C-11.1725 1.74875 -10.595 1.8725 -10 2 C-6.3558226 -0.4294516 -4.28758728 -0.16179575 0 0 Z " fill="#FFF8E8" transform="translate(292,194)"/>
<path d="M0 0 C3.08570729 1.19999728 6.04063894 2.52031947 9 4 C9.33 4 9.66 4 10 4 C10 9.61 10 15.22 10 21 C8 19 8 19 7.59765625 16.7265625 C6.85823455 13.35325304 5.37724066 11.21995297 3.4375 8.375 C0 3.32595573 0 3.32595573 0 0 Z " fill="#2283C0" transform="translate(358,258)"/>
<path d="M0 0 C1.32 0.33 2.64 0.66 4 1 C3.01 1 2.02 1 1 1 C1.33 7.93 1.66 14.86 2 22 C3.32 22.33 4.64 22.66 6 23 C6 20.03 6 17.06 6 14 C7.32 14 8.64 14 10 14 C11.44755245 20.27272727 11.44755245 20.27272727 9.5 23.4375 C7 25 7 25 0 25 C0 16.75 0 8.5 0 0 Z " fill="#E4D0D0" transform="translate(256,232)"/>
<path d="M0 0 C7.83840899 0.04040417 15.07460046 0.78007515 22.53125 3.265625 C22.53125 5.575625 22.53125 7.885625 22.53125 10.265625 C18.83021173 9.03194558 17.26315399 6.99752899 14.53125 4.265625 C10.81845531 3.02802677 7.21818654 2.90953603 3.34375 2.703125 C2.59416016 2.65994141 1.84457031 2.61675781 1.07226562 2.57226562 C-0.77453375 2.46639815 -2.62161834 2.3655274 -4.46875 2.265625 C-2.46875 0.265625 -2.46875 0.265625 0 0 Z " fill="#10A2C9" transform="translate(287.46875,256.734375)"/>
<path d="M0 0 C2.05078125 0.03255208 4.1015625 0.06510417 6.15234375 0.09765625 C6.15234375 2.07765625 6.15234375 4.05765625 6.15234375 6.09765625 C3.76670298 5.52181193 1.48551591 4.8753803 -0.84765625 4.09765625 C-1.17765625 11.35765625 -1.50765625 18.61765625 -1.84765625 26.09765625 C-2.17765625 26.09765625 -2.50765625 26.09765625 -2.84765625 26.09765625 C-2.87652376 21.95183738 -2.89440952 17.80604409 -2.91015625 13.66015625 C-2.91853516 12.47615234 -2.92691406 11.29214844 -2.93554688 10.07226562 C-2.93876953 8.94755859 -2.94199219 7.82285156 -2.9453125 6.6640625 C-2.95054932 5.62193604 -2.95578613 4.57980957 -2.96118164 3.50610352 C-2.80289976 0.14814481 -2.80289976 0.14814481 0 0 Z " fill="#E3EBFD" transform="translate(379.84765625,268.90234375)"/>
<path d="M0 0 C-2.33333333 2.33333333 -4.66666667 4.66666667 -7 7 C-10.73647845 6.83754442 -12.52538742 6.41216356 -15.375 3.9375 C-15.91125 3.298125 -16.4475 2.65875 -17 2 C-15.95199219 1.90912109 -15.95199219 1.90912109 -14.8828125 1.81640625 C-13.97273438 1.73261719 -13.06265625 1.64882812 -12.125 1.5625 C-11.22007812 1.48128906 -10.31515625 1.40007812 -9.3828125 1.31640625 C-5.98306119 0.86496386 -3.56964143 -0.09393793 0 0 Z " fill="#FFF9EC" transform="translate(311,210)"/>
<path d="M0 0 C1.65 0.33 3.3 0.66 5 1 C5 4.96 5 8.92 5 13 C2.03 13 -0.94 13 -4 13 C-4 15.31 -4 17.62 -4 20 C-4.33 20 -4.66 20 -5 20 C-5 17.03 -5 14.06 -5 11 C-2.69 11 -0.38 11 2 11 C1.67 8.36 1.34 5.72 1 3 C1.99 2.67 2.98 2.34 4 2 C2.68 2 1.36 2 0 2 C0 1.34 0 0.68 0 0 Z " fill="#D0C9C9" transform="translate(401,258)"/>
<path d="M0 0 C3.95605247 -0.93170581 7.07987367 -1.17955146 11 0 C15.05940245 3.78868259 17.7782731 8.97772787 20 14 C19.67 14.99 19.34 15.98 19 17 C17.8936781 15.43902526 16.79004215 13.87614673 15.6875 12.3125 C14.76517578 11.00732422 14.76517578 11.00732422 13.82421875 9.67578125 C12 7 12 7 10.5625 4.21875 C9.20428531 1.81204087 9.20428531 1.81204087 6.73828125 1.29296875 C5.93777344 1.25816406 5.13726562 1.22335937 4.3125 1.1875 C3.10013672 1.11595703 3.10013672 1.11595703 1.86328125 1.04296875 C1.24839844 1.02878906 0.63351562 1.01460938 0 1 C0 0.67 0 0.34 0 0 Z " fill="#E7EFFB" transform="translate(347,260)"/>
<path d="M0 0 C1.98 0.66 3.96 1.32 6 2 C5.34 4.97 4.68 7.94 4 11 C2.68 11 1.36 11 0 11 C0 7.37 0 3.74 0 0 Z " fill="#137EB6" transform="translate(398,282)"/>
<path d="M0 0 C0.1953125 6.0546875 0.1953125 6.0546875 0 8 C-0.66 8.66 -1.32 9.32 -2 10 C-2.46290221 12.66242821 -2.46290221 12.66242821 -2.625 15.625 C-2.69976562 16.62789062 -2.77453125 17.63078125 -2.8515625 18.6640625 C-2.90054688 19.43492187 -2.94953125 20.20578125 -3 21 C-5.31 21 -7.62 21 -10 21 C-10 20.67 -10 20.34 -10 20 C-8.02 20 -6.04 20 -4 20 C-4.03480469 18.80761719 -4.06960937 17.61523438 -4.10546875 16.38671875 C-4.13360753 14.82032658 -4.1609076 13.25391919 -4.1875 11.6875 C-4.22520508 10.50897461 -4.22520508 10.50897461 -4.26367188 9.30664062 C-4.27817383 8.1706543 -4.27817383 8.1706543 -4.29296875 7.01171875 C-4.3086792 6.31522217 -4.32438965 5.61872559 -4.34057617 4.90112305 C-3.94194268 2.67591946 -2.59480325 0 0 0 Z " fill="#E1EFF5" transform="translate(256,236)"/>
<path d="M0 0 C0.66 0.33 1.32 0.66 2 1 C1.67 3.64 1.34 6.28 1 9 C-1.22855574 9.0814222 -3.45797655 9.13938079 -5.6875 9.1875 C-6.92886719 9.22230469 -8.17023438 9.25710938 -9.44921875 9.29296875 C-13.18564321 8.9846829 -15.00629483 8.18088273 -18 6 C-17.67 5.34 -17.34 4.68 -17 4 C-15.515 4.99 -15.515 4.99 -14 6 C-11.88168822 6.20425074 -11.88168822 6.20425074 -9.625 6.0625 C-6.25503361 5.98003753 -3.28777564 6.15154177 0 7 C0 4.69 0 2.38 0 0 Z " fill="#CDD8E4" transform="translate(344,248)"/>
<path d="M0 0 C3.22886009 -0.11667875 6.45717445 -0.18740546 9.6875 -0.25 C11.05551758 -0.30027344 11.05551758 -0.30027344 12.45117188 -0.3515625 C16.77608078 -0.41447027 19.29492511 -0.41821932 23.08203125 1.828125 C25 4 25 4 26 7 C25.01 7 24.02 7 23 7 C22.38125 6.360625 21.7625 5.72125 21.125 5.0625 C17.23278217 1.28475916 11.90093626 1.77856592 6.6875 1.4375 C5.43324219 1.35371094 4.17898438 1.26992188 2.88671875 1.18359375 C1.45779297 1.09271484 1.45779297 1.09271484 0 1 C0 0.67 0 0.34 0 0 Z " fill="#EBF4FC" transform="translate(282,260)"/>
<path d="M0 0 C2.475 0.495 2.475 0.495 5 1 C5.625 3.375 5.625 3.375 6 6 C5.34 6.66 4.68 7.32 4 8 C2.68 8 1.36 8 0 8 C0 5.36 0 2.72 0 0 Z " fill="#D6E1FD" transform="translate(291,268)"/>
<path d="M0 0 C0.33 0 0.66 0 1 0 C1 6.93 1 13.86 1 21 C0.67 21 0.34 21 0 21 C-0.22786458 19.01432292 -0.45572917 17.02864583 -0.68359375 15.04296875 C-0.97170735 12.80603607 -0.97170735 12.80603607 -2 10 C-1.9140625 7.7734375 -1.9140625 7.7734375 -1.625 5.375 C-1.53476562 4.57835937 -1.44453125 3.78171875 -1.3515625 2.9609375 C-1 1 -1 1 0 0 Z " fill="#DAE4FD" transform="translate(281,274)"/>
<path d="M0 0 C1.98 0 3.96 0 6 0 C5.67 7.59 5.34 15.18 5 23 C4.67 23 4.34 23 4 23 C3.98541748 22.37432129 3.97083496 21.74864258 3.95581055 21.10400391 C3.88147196 18.27703598 3.78476766 15.45126792 3.6875 12.625 C3.66494141 11.64015625 3.64238281 10.6553125 3.61914062 9.640625 C3.58369141 8.69960937 3.54824219 7.75859375 3.51171875 6.7890625 C3.48553467 5.91975098 3.45935059 5.05043945 3.43237305 4.15478516 C3.18654782 1.61399973 3.18654782 1.61399973 0 0 Z " fill="#FFAC9A" transform="translate(247,232)"/>
<path d="M0 0 C-4.26066025 4.01719395 -4.26066025 4.01719395 -7.6875 3.9375 C-10 3 -10 3 -12 0 C-3.42857143 -1.28571429 -3.42857143 -1.28571429 0 0 Z " fill="#FFF8E8" transform="translate(262,204)"/>
<path d="M0 0 C0 2.64 0 5.28 0 8 C-2.62187494 6.95125002 -3.79371361 6.35068687 -5.25 3.875 C-5.4975 3.25625 -5.745 2.6375 -6 2 C-2.25 0 -2.25 0 0 0 Z " fill="#0DA1C8" transform="translate(281,259)"/>
<path d="M0 0 C1.65 0 3.3 0 5 0 C5.5625 1.9375 5.5625 1.9375 6 4 C5 5 5 5 2.4375 5.0625 C1.2309375 5.0315625 1.2309375 5.0315625 0 5 C0 3.35 0 1.7 0 0 Z " fill="#FAE7E8" transform="translate(262,237)"/>
<path d="M0 0 C0.33 0 0.66 0 1 0 C1 2.97 1 5.94 1 9 C0.01 9 -0.98 9 -2 9 C-2.6875 6.75 -2.6875 6.75 -3 4 C-1.625 1.6875 -1.625 1.6875 0 0 Z " fill="#0377B0" transform="translate(275,240)"/>
<path d="M0 0 C2.475 0.495 2.475 0.495 5 1 C4.67 2.32 4.34 3.64 4 5 C2.68 5 1.36 5 0 5 C0 3.35 0 1.7 0 0 Z " fill="#FFEAEA" transform="translate(127,237)"/>
<path d="M0 0 C0.99 0 1.98 0 3 0 C3.33 1.65 3.66 3.3 4 5 C2.02 5.99 2.02 5.99 0 7 C0 4.69 0 2.38 0 0 Z " fill="#2388BA" transform="translate(263,248)"/>
<path d="M0 0 C0 0.66 0 1.32 0 2 C1.32 2.33 2.64 2.66 4 3 C0.7 3.33 -2.6 3.66 -6 4 C-6.33 3.01 -6.66 2.02 -7 1 C-4 0 -4 0 0 0 Z " fill="#6395B8" transform="translate(287,230)"/>
<path d="M0 0 C0.99 0 1.98 0 3 0 C2.34 3.3 1.68 6.6 1 10 C0.67 10 0.34 10 0 10 C0 6.7 0 3.4 0 0 Z " fill="#0577AF" transform="translate(322,236)"/>
<path d="M0 0 C2 2 2 2 2 6 C0.68 6 -0.64 6 -2 6 C-1.34 4.02 -0.68 2.04 0 0 Z " fill="#DDE6FD" transform="translate(418,275)"/>
<path d="M0 0 C2 2 2 2 2 6 C0.68 6 -0.64 6 -2 6 C-1.34 4.02 -0.68 2.04 0 0 Z " fill="#DDE6FD" transform="translate(140,275)"/>
</svg>
